<?xml version="1.0" encoding="UTF-8"?>
<svg id="Layer_2" data-name="Layer 2" xmlns="http://www.w3.org/2000/svg" viewBox="0 0 1196.46 985.98">
  <defs>
    <style>
      .cls-1 {
        fill: #23466e;
      }

      .cls-2 {
        fill: #1f4c7a;
      }

      .cls-3 {
        fill: #113862;
      }

      .cls-4 {
        fill: #f8b283;
      }

      .cls-5 {
        fill: #143f6a;
      }

      .cls-6 {
        fill: #ea8f18;
      }

      .cls-7 {
        fill: #fefefe;
      }

      .cls-8 {
        fill: #103158;
      }

      .cls-9 {
        fill: #306094;
      }

      .cls-10 {
        fill: #e28b63;
      }

      .cls-11 {
        fill: #63af61;
      }

      .cls-12 {
        fill: #fec14d;
      }

      .cls-13 {
        fill: #0e284d;
      }

      .cls-14 {
        fill: #102846;
      }

      .cls-15 {
        fill: #0e2e55;
      }

      .cls-16 {
        fill: #184c7d;
      }
    </style>
  </defs>
  <g id="Layer_1-2" data-name="Layer 1">
    <g>
      <circle class="cls-7" cx="706.96" cy="489.5" r="489.5"/>
      <g>
        <path class="cls-12" d="M991.46,470c67.39,29.05,79.74,76.18,94,142,8.39,38.75,15.58,77.56,20,117,3.74,33.39,10.95,102.22-4,132-7.65,15.23-29.73,20.71-45,24l-41.46,3.04c-60.63,1.4-121.47,3.56-182.08,1-5.84-.25-14.96-.78-20.46-2.04,16.88-14.07,16.21-40.12,5.19-57.69-6.56-10.46-13.15-13.04-25.19-13.31,4.93-5.61,14.65-6.37,21.79-7.71,24.24-4.56,49.96-6.51,74.54-10.46,29.82-4.79,59.48-11.18,89.33-15.67,18.9-2.84,37.08-5.3,56.33-4.17-.84-4.76-10.59-5.65-14.51-5.98-11.59-.96-22.93,1.36-34.35,1.84-6.16-35-13.38-70.18-17.99-105.5-4.14-31.76-9.6-76.18,5.34-105.37,1.6-3.14,5.53-6.53,5.01-9.99-8.63,5.18-13.44,16.49-16.21,25.79-9.47,31.85-4.51,67.23-.14,99.57,4.41,32.67,10.55,65.34,16.85,97.64l-167.18,28.32c-8.52,2.66-19.26,3.92-24.81,11.69-14.87.12-27.18.23-42.21-2.29-30.46-5.11-61.62-22.62-91.79-22.71-3.95-27.69-11.84-55.88-14.86-83.64s-.75-53.69,4.32-80.39c3.16-16.63,8.38-32.62,12.53-48.96-4.62,5.23-7.31,13.22-9.74,19.75-13.61,36.6-18.71,75.79-14.11,114.6,3.13,26.37,9.53,52.48,13.86,78.64-19.08,2.07-47.82,19.82-60.51,33.99-5.54,6.18-17.5,20.34-21.49,27.01-10.27-1.06-22.77-4.72-33-4-.54-1.65,4.08-3.95,5.07-4.43,2.39-1.15,3.99-.02,6.49-2.51,12.01-11.95,9.28-41.88,1.62-55.75-8.37-15.16-24-16.97-39.69-18.3l-20.49.98c15.58-5.69,32.36-11.7,49-13,19.04-1.49,37.68,4.17,54.32,13.18l12.67,10.82c-5.58-15.29-31.7-24.39-46.62-25.87-5.76-.57-11.97.93-17.38-1.12,5.58-5.79,12.58-17.31,15.76-24.74,17.21-40.11,28.14-89.88,42.97-132.03,16.73-47.58,27.14-77.52,72.27-105.23,26.08-16.02,56.6-22.64,86-30,.17,5.57-.4,11.52,0,17,1.49,20.34,6.35,36.95,27.79,42.71,40.97,11.01,96.81-19.05,118.63-53.79,1.58-2.51,7.64-12.62,6.4-14.74-.41-.71-11.31-6.55-13.79-8.75-.96-.86-.87-2.28-1.03-2.43,31.99,11.08,65.76,16.54,97.21,29.32,1.66.67,4.02.35,4.79.68Z"/>
        <path class="cls-2" d="M23.46,870c40.54-12.39,82.3-16.5,124.37-21.08,1.13.22,6.09,18.81,7.44,21.78,1.56,3.44,3.79,5,5.19,7.31,3.87,6.35-.46,7.67,9.51,8.99,63.39,8.42,132.79,10.39,196.98,15.02,41.67,3.01,88.63,10.07,130,7.98,55.88-2.82,117.56-11.39,173.51-17.99,16.69-1.97,33.68-3.03,50.18-6.32,5.66-1.13,14.5-1.75,17.82-6.68,3.27,1.06,8.29-1,10.5-1h31c12.98,0,26.08,10.49,38.11,11.89,18.03,2.09,40.45.66,58.93,1.07,52.31,1.15,105.69,1.23,157.95-2.97,7.28-.58,14.57-1.5,21.51-2.99,15.27-3.29,37.35-8.77,45-24,1.23.18,2.91-.27,4,0,8.4,2.06,18.44,7.85,27,10,.51,4.41,8.91,5.05,11,7,.1.09.35,1.66.97,2.54.55.78,1.98,1.35,2.03,1.46,1.88,4.56-4.38,10.88-7,14-49.58,31.18-151.16,40.21-210.5,46-145.56,14.19-292.73,15.7-438.95,12.96-113.29-2.12-229.53-6.94-341.91-22.09-34.9-4.7-108.05-15-136.55-33.45-3.75-2.43-6.1-5.88-10.08-7.42-.02-1.89.68-4.91-1-6,1-5.4,13.85-13.95,19.01-15.53,1.53-.47,3.11-.2,3.99-.47Z"/>
        <path class="cls-14" d="M823.46,139c.29.17.56.75,1,1,1.11.64,1.98,2.26,4,2,.81,1.34,1.33,1.31,2,2l2,1c1.69,1.3,1.39,1.54,4,3,1.94,3.34,5.35,5.41,8,8s5.39,5.32,8,8l1,2c.33.35.68.66,1,1,.8,4.06,5.32,7.94,7,11,.34.62.66,1.35,1,2,.87,1.69,2.21,5.06,3,7,.7,1.72,1.34,4.09,2,6,5.56,16.06,9.16,34.53,9.08,51.5-.02,4.49-2.06,10-1.11,14.98-21.67,20.08-32.45,51.21-20.46,79.5,12.38,29.22,50.33,37.11,73.97,16,1.31-1.17,2.48-2.01,2.51-3.98,8.73-4.52,16.97-23.62,19-33,3.53,3.55,7.51,8.02,10.46,12.04,1.34,1.82,1.38,4.33,2.95,6.05,4.38,4.77,15.23,11.56,19.13,16.87,1.66,2.26,2.02,5.54,3.91,7.09,2.12,1.73,4.78,1.42,7.58,4.42,3.1,3.32,2.91,6.95,6.94,10.06,2.23,1.72,4.83,2.06,5.99,3.01,1.48,1.22,2.19,5.91,4.04,6.96s4.21-.06,5.99,1.01c.84.5,1.27,2.47,2.64,3.36,3.5,2.3,15.8,9.23,19.41,6.67.88-.62.83-2.58,1.54-3.44.91-1.1,2.98-1.58,3.26-2.67.19-.77-1.71-13.63-2.12-15.65-.85-4.22-2.46-8.25-3.64-12.38-.33-1.16-1.71-3.74-.09-4.4,7.33,18.7,10.05,39.43,4.3,58.8-2.05,6.9-6.35,16.47-13.29,19.2l-9.01-23v14.5c0,3.02-3.02,12.41-4.26,15.74-4.46,12.04-13.16,22.14-24.74,27.76-.76-.33-3.13-.01-4.79-.68-31.45-12.78-65.22-18.24-97.21-29.32-10.74-10.18-16.96-22.95-19.77-37.73-2.23-11.73,1.03-24.53-.42-36.58-4.72-4.68-10.52-7.99-14.79-13.21-13.96-17.06-14.08-38.01-9.73-58.68.47-2.25,2.46-5.87,2.49-7.48.05-2.54-4.81-8-7.09-9.51-17.95-11.86-44.76-21.06-64.37-31.63-28.33-15.28-52.5-37.36-59.34-70.17l-6.52,17.96c-11.79,29.12-38.37,47.12-62.47,65.03-2.37,1.76-7.52,3.86-10,6-7.08-18.53-8.94-37.99-3.72-57.22,4.53-16.67,19.56-41.57,32.72-52.78,44.31-37.77,106.07-44.43,157-15Z"/>
        <path class="cls-8" d="M1139.46,896c1.31-.82,5.22-1.16,6.99-4-1.92,6.4,1.62,20.93-2.28,25.72-.51.63-2.24,1.26-3.25,2.21-1.85,1.74-7.32,6.91-9.46,8.07-41.09,22.38-126.89,32.38-174.51,37.99-33.34,3.93-69.56,8.02-103.04,9.01-1.93.06-4.01-1.01-3.45,2-3.3.23-6.7-.22-10,0l-16.54-.04c-35.1,2.87-70.29,3.89-105.46,5.04-74,2.43-147.86,2.32-222,1-13.64-.24-27.37.4-41,0-.33,0-.67.01-1,0-74.68-2.25-150.74-6.75-225.5-14-70.95-6.88-146.44-14.91-212.74-41.26l-8.77-4.74c-2.15-1.9-6.97-5.93-7-9,0-.13,1.05-1.13,1.03-2.43-.08-6.52.05-13.06-.03-19.57,3.98,1.54,6.33,4.99,10.08,7.42,28.5,18.45,101.64,28.75,136.55,33.45,112.38,15.15,228.63,19.97,341.91,22.09,146.22,2.74,293.39,1.22,438.95-12.96,59.34-5.78,160.92-14.81,210.5-46Z"/>
        <path class="cls-3" d="M1124.46,615c.33.01.67-.01,1,0,4.33,2.09,9.35,2.47,14,4,2.08.68,4.99,2,7,3l11,9c.32.35.69.64,1,1,6.46,9.98,10.45,19.64,12.04,31.5.25,1.86-1.27,4.06,1.96,3.5.19,3.19.1,6.78,0,10-3.22-.56-1.72,1.63-1.95,3.5-1.95,15.8-6.23,31.69-7.05,47.5-.02.33,0,.67,0,1-1.52.8-1.06,3.43-1,5,.01.33,0,.67,0,1-1.52.8-1.06,3.43-1,5,.01.33,0,.67,0,1l-23,131c-.23.2-4.96-.74-6-1-8.56-2.15-18.6-7.94-27-10-1.84-1.21-2.14-.66-1.61-3.01,1.39-6.08,4.2-12.16,5.34-18.76,5.01-29.03,3.1-77.5-1.71-106.8-.31-1.88,1.13-4-2.02-3.43-4.42-39.44-11.61-78.25-20-117h1c1.04,1.69,2.71,1.86,4.48,2.02,10.29.95,22.88.51,33.52.98Z"/>
        <path class="cls-13" d="M840.46,103c.32.05.68-.05,1,0,.14,1.5,2.86,1.5,3,0,5.5.92,9.23,2.64,14,5,2.42,1.19,6.06,4.22,9.32,5.18l8.68,2.82c11.9,6.46,22.87,14.02,33,23l9.19,10.3,2.81,1.7c16.85,19.45,28.06,42.6,36,67-1.92.98-.7,3.34-.31,4.8,1.97,7.28,4.14,14.57,6.17,21.84.45,1.61.49,3.38,2.14,4.36.07.32-.07.68,0,1,3.8,16.8,4.46,21.14,13.49,36.01.3.49,1.72,4.22,2.51,1.99.6.91,1.41,2.18,2,3,4.04,5.67,4.23,5.06,9,9,20.86,17.23,35.81,30.98,46,57-1.62.65-.24,3.24.09,4.4,1.18,4.13,2.78,8.16,3.64,12.38.41,2.02,2.31,14.88,2.12,15.65-.27,1.09-2.35,1.57-3.26,2.67-.71.86-.66,2.82-1.54,3.44-3.61,2.56-15.91-4.37-19.41-6.67-1.37-.89-1.79-2.86-2.64-3.36-1.79-1.06-4.17.02-5.99-1.01s-2.56-5.74-4.04-6.96c-1.15-.96-3.76-1.29-5.99-3.01-4.02-3.12-3.84-6.75-6.94-10.06-2.8-2.99-5.46-2.69-7.58-4.42-1.89-1.54-2.25-4.82-3.91-7.09-3.9-5.31-14.75-12.1-19.13-16.87-1.57-1.71-1.62-4.22-2.95-6.05-2.95-4.02-6.93-8.49-10.46-12.04.13-.59-.11-1.38,0-2,.16-.88,0-.95,0-1,.66-4.94,1.25-9.99,1-15-.13-2.56-.79-6.73-2-9-.03-.33.03-.67,0-1-2.06-20.65-18.35-34.48-36.83-41.16.21-7.06-.47-13.89-1.17-20.84-5.19-51.52-32.85-95.53-82-115-18.46-7.31-36.18-9.9-56-10l-8-1.99c25.39-3.94,49.84-2.03,75,1.99Z"/>
        <path class="cls-14" d="M661.46,359c13.29,44.31,36.94,79.72,85.51,87.03,1.87.28,4.05-1.25,3.49,1.97-.85,4.2.9,8.7,1,12-29.4,7.36-59.92,13.98-86,30-22.27-8.52-45.34-28.52-47.88-53.62-2.96-29.25,16.93-51.79,26.88-77.38,5.26,1.96,11.65,1,17,0Z"/>
        <path class="cls-11" d="M254.46,555c-.15-.48-.72-1.17-1-2-9.21-27.63-23.09-54.06-39.51-77.98,12.23,26.43,22.58,53.6,32.51,80.98l-1,1c-.42-.34-3.28-.9-4.67-1.81-41.02-26.99-64.51-58.12-61.37-109.73.35-5.72,2.49-11.61,2.05-17.45,52.96,14.18,103.37,71.1,72.99,127ZM212.96,473v1c.65-.33.65-.67,0-1Z"/>
        <path class="cls-4" d="M482.46,768l20.49-.98c15.69,1.33,31.32,3.14,39.69,18.3,7.66,13.87,10.39,43.8-1.62,55.75-2.5,2.48-4.1,1.36-6.49,2.51-.99.48-5.62,2.78-5.07,4.43-6.52.46-12.29,4.11-18,7-4.76,1.27-9.2,2.24-14,3-1.99.31-3.89,1.29-6,1-.08-.29-1.48-1.97-2-2,.3-7.68-7.2-20.11-5.8-27.26.61-3.09,6.21-11.9,8.38-14.66l10.41-10.08c-8.54,2.62-18.19,11.22-19.99,19.99-.61-.12-1.55.18-2,0-1.65-11.28-5.86-22.09-9-33-.25-.88-.88-1.57-1-2-1.51-5.27-2.43-11.59-4-17,5.67-.62,10.75-3.08,16-5Z"/>
        <path class="cls-11" d="M275.46,584c-8.48-31.41,22.48-60.34,49.03-71.47,11.08-4.65,23.01-7.18,34.96-8.53-1.59,36.99-21.66,67.96-53.97,85.52-4.98,2.71-18.15,7.07-21.02,9.48-2.65-.04-5.35-.08-8,0,11.08-20.77,25.44-39.98,39.98-58.51l-26.49,25.5-14.49,18.01Z"/>
        <path class="cls-8" d="M411.46,608c2.33,1.32,3.45,2.96,5,5l11.27,34.23c5.91,18.12,9.94,36.96,16.05,55,.55,1.62.17,3.27,2.69,2.76.75,2.51,1.23,5.39,2,8-1.8.82-.48,3.29-.13,4.62,5.9,22.6,13.42,44.85,19.64,67.38l2.49,5.01c.12.43.75,1.12,1,2-1.87,1.28-.15,4.52.3,6.21,1.02,3.8,6.84,26.06,8.7,26.79.45.18,1.39-.12,2,0-2.45,11.91,4.84,21.32,6.02,33.01.48-.09.9-1.02.98-1.01.52.03,1.92,1.71,2,2,.32,1.16-.03,3.24.45,5.02,2.22,8.3,5.08,16.51,6.55,24.98-3.1.14-6.2,1.65-9.53,1.03-2.7-.51-1.75-3.5-4.47-3.03-.15-3.18-1.42-4.69-2-7-20.14-80.53-48.91-160.54-70-241-.2-2.96-2.08-5.53-3-8-.31-.83-.78-1.45-1-2-.79-2.02-.69-5.09-1.81-7.69-.82-1.89-5.72-9.32-7.19-10.31,2.17-.92,3.27-2.62,3-5,4.92.35,4.1.84,7.92,2.47.5.21,1.03-.49,1.08-.47Z"/>
        <path class="cls-16" d="M773.46,103c19.82.1,37.54,2.69,56,10-6.04,2.16-12.67,5.63-13.84,12.75-.9,5.46,7.64,7.48,7.84,13.25-50.93-29.43-112.69-22.77-157,15,3.03-6.84,9.5-12.14,15-17,.52,2,2.77-.59,3.35-1.14,11.68-10.91,32.48-20.71,47.65-25.86.68-.23,1.31-.78,2-1,12.43-4,26.01-6.06,39-6Z"/>
        <path class="cls-11" d="M244.46,598c-10.44-.92-18.72-7.45-28.48-11.02l15.48,10.01c-10.96-.95-22.03-.53-32.99-.99-.72-.03-2.29-.93-4-1-10.58-6.06-19.3-14.26-26.39-24.11-5.14-7.15-9.6-10.51,2.02-11.76,12.06-1.3,25.41-1.59,37.13,1.61,18.03,4.92,35.1,17.5,37.24,37.26Z"/>
        <path class="cls-16" d="M647.46,258c.08,4.97.09,10.14-1,15-.28,1.23-1.44,3.93-2,6-5.65,21.03-9.63,50.01,10,66,1.3,1.06,2.45,2.27,4,3,.86,3.59,1.94,7.45,3,11-5.35,1-11.74,1.96-17,0-6.6-2.46-12.19-11.92-15-18,1.38-.46-.01-3.2-.3-4.18-5.56-18.79-8.12-33.41-2.2-52.82l5.51-13.99c1.58-2.2,2.91-4.19,5-6,2.48-2.14,7.63-4.24,10-6Z"/>
        <path class="cls-3" d="M135.46,804c5.75,18.89,12.97,44.83,21.23,62.27,6.37,13.45,25.22,8.78,37.25,9.75,21.68,1.73,43.23,3.48,65,5,9.68.67,20.48,3.31,29.79,3.72,5.02.22,11.52-1.36,17.22-.73,3.47.38,7.01,2.95,9.09,3.03,2.23.09,3.22-1.82,4.85-1.93,6.27-.4,24.8,2,32.01,2.94,11.81,1.55,24.62.66,37.03,1.98,4.28.45,8.59,2.74,12.01,3.04,4.88.44,13.03-1.22,19.04-1.1,11.77.24,28.41.87,39.95,2.05,4.1.42,8.79,3.26,12.05,3.1,1.83-.09,1.31-1.92,2.15-2.1,2.84-.63,4.61.96,6.99-2.29l1.33-12.72c.58,2.31,1.85,3.82,2,7,.66,14.52-10.59,12.39-21.54,12.04-79.86-2.55-163.02-11.08-242.97-17.03-12.99-.97-25.56-.46-38.49-3.01-1.27-.25-4.21-2.69-6,0-1.98,0-4.03.12-6,0,.32-2.37-.15-2.2-2.49-1.99l-.51.99c-.96-.11-2.02.02-3,0,.55-3.13-2.61-2.97-2,0h-1c-1.41-2.31-3.63-3.86-5.19-7.31-1.35-2.97-6.31-21.55-7.44-21.78-42.07,4.59-83.83,8.7-124.37,21.08.64-1.88,2.42-1.99,3.97-2.53,14.54-5.15,32.52-8.59,47.83-11.17,23.75-4.01,48.21-6.63,72.2-8.3-4.17-14.7-8.72-29.32-13-43.99h1Z"/>
        <path class="cls-14" d="M7.46,923l8.77,4.74c66.3,26.35,141.79,34.37,212.74,41.26,74.76,7.25,150.82,11.76,225.5,14v1c-.33,0-.67,0-1,0l-1.49-.99-.51.99c-.67,0-1.33,0-2,0-2.64-1.84-7.54-.98-11-1-92.38-.44-193.83-8.49-285.36-21.14-34.8-4.81-120.39-16.64-145.64-38.86Z"/>
        <path class="cls-16" d="M246.46,556c-9.93-27.38-20.28-54.55-32.51-80.98,16.42,23.92,30.3,50.35,39.51,77.98-1.96,1.01-.66,3.32-.29,4.78,3.26,12.88,5.84,28.15,9.29,40.22h-6v-1c2.3-3.22.45-8.6-.3-12.2-2.14-10.26-6.25-19.28-9.7-28.8Z"/>
        <path class="cls-14" d="M1131.46,928v1c-25.25,14.19-63.22,21.54-91.8,26.7-62.43,11.26-125.94,16.84-189.2,21.3-.56-3.01,1.53-1.94,3.45-2,33.48-.99,69.7-5.08,103.04-9.01,47.62-5.61,133.42-15.61,174.51-37.99Z"/>
        <path class="cls-13" d="M718.46,982v2c-73.85,2.47-148.06,2.42-222,1v-2c74.14,1.32,148,1.43,222-1Z"/>
        <path class="cls-16" d="M276.46,599c-2.32.07-4.69-.14-7,0,.99-2.2,1.58-4.59,2.79-6.71,1.92-3.36,4.17-3.09,3.21-7.29-.07-.32.08-.69,0-1l14.49-18.01,26.49-25.5c-14.54,18.53-28.9,37.74-39.98,58.51Z"/>
        <path class="cls-13" d="M1143.46,878c.81,1.13.9-.53,3,4-.05-.12-1.49-.69-2.03-1.46-.61-.87-.87-2.44-.97-2.54-2.09-1.95-10.49-2.59-11-7,1.04.26,5.77,1.2,6,1l23-131c-.03,4.56-.59,9.28-1.29,14.21-5.48,38.59-13.95,76.89-19.65,115.46-.38,1.97,1.73,5.62,2.94,7.33Z"/>
        <path class="cls-13" d="M194.46,595c1.71.07,3.28.97,4,1v1c-37-1.83-74.29-1.77-111.37-3.68-2.72.31-8.55,3.11-9.63,5.68,3.24-5.05,5.6-7.8,12.49-8.07,3.33-.13,6,1.07,8.97,1.11,31.8.43,63.67,1.69,95.54,2.96Z"/>
        <path class="cls-8" d="M114.46,735h-1c-12.13-39.9-25.73-79.71-36-120,15.06,35.65,25.88,82.18,37,120Z"/>
        <path class="cls-5" d="M244.46,598c3.74.33,8.14,0,12,0h6c.13.46,1.04,1.2,1,2-21.9,1.46-43.16-1.92-65-3v-1c10.96.46,22.04.04,32.99.99l-15.48-10.01c9.76,3.57,18.04,10.1,28.48,11.02Z"/>
        <path class="cls-14" d="M840.46,977c-40.31,2.74-81.16,5.64-122,7v-2c35.17-1.16,70.36-2.17,105.46-5.04l16.54.04Z"/>
        <path class="cls-14" d="M840.46,103c-25.16-4.02-49.61-5.93-75-1.99l8,1.99c-12.99-.06-26.57,2-39,6,25.88-11.45,57.36-13.89,85.39-10.9,6.24.67,15.3,1.89,20.61,4.9Z"/>
        <path class="cls-6" d="M534.46,752c5.41,2.05,11.62.55,17.38,1.12,14.92,1.49,41.04,10.58,46.62,25.87l-12.67-10.82c-16.65-9.01-35.28-14.67-54.32-13.18.41-1.67,2.16-2.13,3-3Z"/>
        <path class="cls-13" d="M466.46,773c1.57,5.41,2.49,11.73,4,17l-2.49-5.01c-6.22-22.52-13.73-44.77-19.64-67.38-.35-1.33-1.67-3.8.13-4.62,5.91,20,12.2,39.97,18,60Z"/>
        <path class="cls-3" d="M629.46,341c-9.72-21.02-10.9-51.68,3-71l-5.51,13.99c-5.91,19.41-3.36,34.04,2.2,52.82.29.99,1.69,3.72.3,4.18Z"/>
        <path class="cls-13" d="M351.46,602c.66,1.58,4.34,1.58,5,0,14.32.6,33.93-.05,47.44,2.06,2.43.38,5.71,2.26,7.56,3.94-.05-.03-.58.68-1.08.47-3.81-1.62-2.99-2.12-7.92-2.47-2.98-.21-8.41-1-10.5-1h-17c-6.43,0-13.66-1.13-20.5-1-1.99.04-4.01-.09-6,0-.11-.48-.53-.93-1-1v-1c1.33.06,2.67-.06,4,0Z"/>
        <path class="cls-15" d="M1131.46,929v-1c2.14-1.16,7.61-6.33,9.46-8.07,1.01-.95,2.74-1.58,3.25-2.21,3.9-4.78.36-19.32,2.28-25.72-1.77,2.84-5.68,3.18-6.99,4,2.62-3.12,8.88-9.44,7-14,.73,1.57,1.66,1.4,2.03,4.46.59,4.89.57,22.01-.7,26.37-2.22,7.63-9.79,12.5-16.33,16.17Z"/>
        <path class="cls-13" d="M446.46,705c-2.51.51-2.14-1.14-2.69-2.76-6.11-18.04-10.14-36.88-16.05-55l-11.27-34.23c2.5,3.28,4.04,6.11,5.54,9.96,9.59,24.72,16.78,56.1,24.46,82.04Z"/>
        <path class="cls-13" d="M1172.46,677c-.4,13.22-4.52,32.96-7.15,46.35-.33,1.68-.37,3.45-1.85,4.65.82-15.8,5.1-31.7,7.05-47.5.23-1.88-1.26-4.06,1.95-3.5Z"/>
        <path class="cls-13" d="M332.46,602v1c-2.32-.09-4.67.07-7,0-4.55-.15-10.04-.86-15-1-3.65-.1-7.35.08-11,0s-8.36-1.05-13-1c-1,.01-2-.01-3,0,.41-.51.63-1.69,1-2,3.27.05,7.48,1,9.5,1h21c4.76,0,12.11,1.8,17.5,2Z"/>
        <path class="cls-3" d="M254.46,555c4.3,13.41,8.02,29.03,9,43.01,1.39-.2,3.79.48,4.84-.17.63-.38,5.69-11.31,7.16-12.84.96,4.2-1.29,3.93-3.21,7.29-1.21,2.12-1.8,4.51-2.79,6.71-.38.02-2.02.89-4,1-.66.04-1.34-.04-2,0,.04-.8-.87-1.54-1-2-3.45-12.07-6.04-27.33-9.29-40.22-.37-1.46-1.67-3.77.29-4.78.28.83.85,1.52,1,2Z"/>
        <path class="cls-3" d="M256.46,597c-.84-6.29-7.27-36.99-11-40l1-1c3.45,9.51,7.56,18.54,9.7,28.8.75,3.6,2.6,8.98.3,12.2Z"/>
        <path class="cls-3" d="M125.46,772c.09.31-.09.69,0,1-5.19-12.23-8.15-25.33-12-38h1c3.62,12.3,7.49,24.76,11,37Z"/>
        <path class="cls-13" d="M1124.46,615c-10.64-.47-23.23-.02-33.52-.98-1.77-.16-3.44-.33-4.48-2.02,10-1.07,19.77,1.25,29.61,1.9,2.66.18,5.77-2.04,8.39,1.1Z"/>
        <path class="cls-8" d="M135.46,804h-1c-3-10.31-6.07-20.75-9-31-.09-.31.09-.69,0-1,1.49.99,1.79,2.66,2.28,4.21,2.93,9.15,4.93,18.65,7.72,27.79Z"/>
        <path class="cls-14" d="M965.46,249c-1.65-.99-1.69-2.76-2.14-4.36-2.03-7.27-4.2-14.56-6.17-21.84-.4-1.46-1.61-3.81.31-4.8,3.41,10.47,5.58,20.39,8,31Z"/>
        <path class="cls-14" d="M496.46,983v2c-2.66-.05-5.34,0-8,0l-.5-.98-.5.98c-1,0-2,0-3,0-3.77-1.85-9.58-.99-14-1-4.99-.01-10.01,0-15,0v-1c13.63.4,27.36-.24,41,0Z"/>
        <path class="cls-14" d="M981.46,288c-.8,2.23-2.21-1.49-2.51-1.99-9.02-14.87-9.69-19.21-13.49-36.01,4.6,8.15,4.84,17.79,8.99,26.51,1.89,3.98,4.59,7.83,7.01,11.49Z"/>
        <path class="cls-13" d="M1172.46,667c-3.23.56-1.71-1.63-1.96-3.5-1.59-11.86-5.58-21.52-12.04-31.5,9.29,10.86,13.12,20.53,14,35Z"/>
        <path class="cls-14" d="M1.46,892c.08,6.51-.04,13.05.03,19.57.02,1.3-1.03,2.3-1.03,2.43,1.07-8.32-1.45-20.17,0-28,1.68,1.09.98,4.11,1,6Z"/>
        <path class="cls-3" d="M77.46,602c-1.1,5.29-.76,7.59,0,13-2.35-5.57-4.44-7.58-1.77-14.31.41-1.05,1.55-1.34,1.77-1.69-.25.6.18,2.12,0,3Z"/>
        <path class="cls-3" d="M732.46,110c-15.18,5.15-35.97,14.95-47.65,25.86-.58.54-2.83,3.14-3.35,1.14,10.76-9.52,22.86-16.64,36.03-22.47l14.97-4.53Z"/>
        <path class="cls-14" d="M347.46,602v1c-3.14-.46-7.6.05-11,0-1.33-.02-2.67.05-4,0v-1c4.97.19,10.03-.22,15,0Z"/>
        <path class="cls-13" d="M484.46,985c-4.42-.01-10.23.85-14-1,4.42.01,10.23-.85,14,1Z"/>
        <path class="cls-13" d="M1139.46,619c-4.65-1.53-9.67-1.91-14-4,5.18.2,9.55.23,14,4Z"/>
        <path class="cls-14" d="M876.46,116l-8.68-2.82c-3.26-.96-6.91-3.99-9.32-5.18,6.37,1.47,12.33,4.92,18,8Z"/>
        <path class="cls-13" d="M449.46,984c-3.46-.02-8.36.84-11-1,3.46.02,8.36-.84,11,1Z"/>
        <path class="cls-14" d="M992.46,300c-4.77-3.94-4.96-3.33-9-9l9,9Z"/>
        <path class="cls-13" d="M1161.46,740c-.06-1.57-.52-4.2,1-5-.02.88,1.66,3.22-1,5Z"/>
        <path class="cls-13" d="M1162.46,734c-.06-1.57-.52-4.2,1-5-.01.92,1.65,3.21-1,5Z"/>
        <path class="cls-5" d="M356.46,602c-.66,1.58-4.34,1.58-5,0,1.66.07,3.34-.07,5,0Z"/>
        <path class="cls-13" d="M1146.46,622c5.3,2.63,6.94,4.58,11,9l-11-9Z"/>
        <path class="cls-14" d="M921.46,151l-2.81-1.7-9.19-10.3c4.33,3.84,8.21,7.62,12,12Z"/>
        <path class="cls-14" d="M844.46,103c-.14,1.5-2.86,1.5-3,0,.19.03,1.32-.28,3,0Z"/>
        <path class="cls-13" d="M453.46,984c-.67,0-1.33,0-2,0l.51-.99,1.49.99Z"/>
        <path class="cls-13" d="M455.46,984c-.33,0-.67,0-1,0v-1c.33.01.67,0,1,0v1Z"/>
        <path class="cls-13" d="M488.46,985c-.33,0-.67,0-1,0l.5-.98.5.98Z"/>
        <path class="cls-4" d="M889.46,440c.16.15.07,1.57,1.03,2.43,2.48,2.2,13.38,8.05,13.79,8.75,1.24,2.12-4.82,12.23-6.4,14.74-21.82,34.74-77.66,64.8-118.63,53.79-21.44-5.76-26.3-22.37-27.79-42.71,11.85-.59,24.58-7.54,34.31-14.19,13.31-9.09,24.86-21.88,33.66-35.33-17.51,9.27-35.52,16.46-55.49,18.5-3.41.35-12.79-1.46-13.49,2.01.56-3.22-1.62-1.68-3.49-1.97-48.57-7.31-72.22-42.73-85.51-87.03-1.06-3.55-2.14-7.41-3-11-5.88-24.61-6.9-50.22-12-75,1.09-4.86,1.08-10.03,1-15,24.09-17.92,50.68-35.92,62.47-65.03l6.52-17.96c6.84,32.8,31.01,54.89,59.34,70.17,19.61,10.58,46.41,19.77,64.37,31.63,2.28,1.51,7.14,6.97,7.09,9.51-.03,1.61-2.01,5.23-2.49,7.48-4.35,20.68-4.24,41.62,9.73,58.68,4.27,5.22,10.07,8.53,14.79,13.21,1.45,12.05-1.81,24.85.42,36.58,2.81,14.79,9.03,27.55,19.77,37.73ZM802.35,271.91c.63-.45,1.28-3.72.67-4.89-2.56-4.92-22.53-10.4-28.19-10.88-7.96-.68-27.86-.06-25.37,11.87,12.8-2.63,23.32-3.68,36.2-.7,3.03.7,15.07,5.75,16.69,4.61ZM694.46,268.99c.76-10.07-17.52-9.69-24.49-8.99-4.19.42-22.24,6.54-20.5,12.46,1.17,3.98,10.42-1.32,12.99-1.98,10.96-2.84,20.73-3.34,32-1.5ZM764.46,302c-1.41,1.6-1.08,1.31-2,3-3.8,6.99-3.99,11.36-2,19,.24.91.71,1.36,1,2,4.25,9.5,10.12,9.56,17,2,.31-.34.74-.63,1-1,5.26-7.31,7.15-20.72-.53-26.97-6.26-5.09-9.58-3.56-14.47,1.97ZM680.46,330c.66.5.71,1.42,2.41,2.08,14.67,5.71,19.1-25.85,6.78-32.77-14.86-8.35-21.28,16.64-11.19,28.68.75.89,1,1.25,2,2ZM718.46,304.01c-3.21-3.79-6.32,15.4-6.73,16.76-4.19,13.77-20.44,34.64-2.61,45.09,5.59,3.28,12.17,1.91,18.35,2.14.84-3.19-4.45-1.83-7.05-2.44-30.28-7.1-5.66-32.42-2.61-49.71.71-3.99.87-7.81.65-11.84ZM766.45,387c-11.1,7.99-25.05,9.94-38.48,8.99-1.94-.14-10.34-3.46-10.49-.5-.21,4.34,13.86,9.03,17.58,9.4,11.43,1.13,27.38-6.73,31.38-17.89Z"/>
        <path class="cls-4" d="M644.46,791c2.43-.26,5.46,0,8,0,30.17.08,61.33,17.6,91.79,22.71,15.03,2.52,27.34,2.41,42.21,2.29,2-.02,4.01-.04,6,0,12.04.27,18.64,2.85,25.19,13.31,11.02,17.57,11.69,43.63-5.19,57.69-6.58-1.51-12.94-6.08-19.56-7.94-20.94-5.9-35.17-.57-54.44-1.06s-39.66-14.3-56.73-19.77c-12.81-4.11-33.26,2.25-44.58,8.97-9.7,5.76-14.14,13.09-27.7,8.8-2.23-3.01-5.43-2.89-4-9,4.22-2.34,9.18-9.17,13.53-12.97,10.43-9.14,24.78-19.13,38.25-22.78,1.19-.32,4.08-.1,4.23-.25,2.18-2.13-2.06-3.96-4.38-3.9-17.37.42-42.29,21.26-52.03,35-1.28,1.8-3.48,3.62-1.6,5.91-8.22,5.04-12.47,5.09-22,2.5-1.37-.37-2.45-1.91-3.74-2.26-3.77-1.01-7.47-.16-11.96-2.04-7.95-3.33-7.18-7.7-3.31-14.19,3.98-6.67,15.94-20.83,21.49-27.01,12.7-14.17,41.44-31.91,60.51-33.99ZM642.46,812.02c-2.42-2.61-15.73,2.02-19,3.48-13.58,6.07-38.1,26.79-45.21,39.79-1.82,3.34-5.39,12.73.42,6.42,14.7-15.96,26.53-31.06,46.74-41.26,4.79-2.42,11.36-3.79,15.77-6.22.91-.5,2.67-.71,1.27-2.22Z"/>
        <path class="cls-6" d="M786.46,816c5.55-7.77,16.3-9.03,24.81-11.69l167.18-28.32c-6.31-32.3-12.44-64.97-16.85-97.64-4.37-32.34-9.32-67.72.14-99.57,2.76-9.3,7.58-20.61,16.21-25.79.52,3.47-3.4,6.85-5.01,9.99-14.93,29.2-9.48,73.62-5.34,105.37,4.61,35.32,11.83,70.5,17.99,105.5,11.41-.49,22.76-2.81,34.35-1.84,3.92.33,13.67,1.22,14.51,5.98-19.25-1.13-37.43,1.33-56.33,4.17-29.85,4.49-59.51,10.87-89.33,15.67-24.58,3.95-50.3,5.9-74.54,10.46-7.14,1.34-16.86,2.1-21.79,7.71-1.99-.04-4-.02-6,0Z"/>
        <path class="cls-3" d="M529.46,848c10.23-.72,22.73,2.94,33,4-3.88,6.5-4.64,10.86,3.31,14.19,4.48,1.88,8.19,1.03,11.96,2.04,1.29.35,2.37,1.89,3.74,2.26,9.52,2.59,13.77,2.54,22-2.5.63-.39,1.35-.64,2-1-1.43,6.11,1.77,5.99,4,9,.03.05-.9.37-.81.82,4.46.95.85,2.78-1.77,3.08-15.84,1.86-32.18,1.92-47.99,4.01-1.92.25-1.34,2.1-2,2.11-2.98.07-4.47-.36-8.43-.03-16.6,1.39-33.35,2.24-50,3-1.47-8.47-4.33-16.69-6.55-24.98-.48-1.78-.13-3.86-.45-5.02,2.11.29,4.01-.69,6-1,1.96,1.89,7.74.29,10.03-.47,2.73-.9,3.05-2.06,3.97-2.53,5.71-2.89,11.48-6.54,18-7Z"/>
        <path class="cls-6" d="M652.46,791c-2.54,0-5.57-.26-8,0-4.33-26.16-10.73-52.28-13.86-78.64-4.6-38.82.51-78.01,14.11-114.6,2.43-6.54,5.12-14.52,9.74-19.75-4.15,16.34-9.37,32.34-12.53,48.96-5.07,26.71-7.27,53.27-4.32,80.39s10.91,55.95,14.86,83.64Z"/>
        <path class="cls-10" d="M751.46,477c-.4-5.48.17-11.43,0-17-.1-3.3-1.85-7.8-1-12,.7-3.47,10.08-1.67,13.49-2.01,19.97-2.04,37.98-9.23,55.49-18.5-8.81,13.44-20.36,26.24-33.66,35.33-9.73,6.65-22.46,13.59-34.31,14.19Z"/>
        <path class="cls-16" d="M812.46,887c5.49,1.27,14.61,1.79,20.46,2.04,60.61,2.56,121.46.4,182.08-1l41.46-3.04c-6.94,1.49-14.23,2.41-21.51,2.99-52.26,4.2-105.64,4.12-157.95,2.97-18.48-.41-40.91,1.03-58.93-1.07-12.03-1.4-25.12-11.89-38.11-11.89h-31c-2.21,0-7.23,2.06-10.5,1v-1c19.28.49,33.5-4.84,54.44,1.06,6.61,1.86,12.98,6.43,19.56,7.94Z"/>
        <path class="cls-15" d="M1105.46,729c3.15-.57,1.71,1.55,2.02,3.43,4.81,29.3,6.73,77.77,1.71,106.8-1.14,6.6-3.95,12.69-5.34,18.76-.54,2.35-.24,1.8,1.61,3.01-1.09-.27-2.77.18-4,0,14.95-29.78,7.74-98.61,4-132Z"/>
        <path class="cls-15" d="M163.46,878c.98.02,2.04-.11,3,0,.34.04,1.31.9,3,1,1.97.12,4.02,0,6,0,2,0,4,0,6,0,12.93,2.55,25.5,2.04,38.49,3.01,79.95,5.95,163.11,14.48,242.97,17.03,10.95.35,22.2,2.47,21.54-12.04,2.72-.47,1.77,2.52,4.47,3.03,3.33.63,6.42-.89,9.53-1.03,16.65-.76,33.4-1.61,50-3-.88,6.75-9.53-1.59-10,5.99,3.8.46,4.58,1.1,4,5.02,6.05-2.89,7.27,1.46,11.44,2.05,6.42.9,10.44-1.99,15.04-2.06,4.51-.07,9.21,3.53,13.03,3.12,2.37-.26,1.94-2.85,3.02-3.12.65-.16,3.17,2.11,5.95,2.12,3.08.01,19.22-1.48,21.85-2.12,2.81-.68.24-.86,6.22-.92,2.22-.02,3.32-1.89,4.89-1.98,13.54-.76,27.29-2.15,41.03-3.15,1.61-.12,4.54-.49,5.53,1.06-55.95,6.6-117.63,15.17-173.51,17.99-41.37,2.09-88.33-4.97-130-7.98-64.19-4.63-133.59-6.6-196.98-15.02-9.96-1.32-5.64-2.64-9.51-8.99h1c.67.01,1.33-.02,2,0Z"/>
        <path class="cls-8" d="M738.46,878v1c-3.32,4.94-12.16,5.56-17.82,6.68-16.5,3.28-33.49,4.35-50.18,6.32-.99-1.55-3.92-1.17-5.53-1.06-13.74,1.01-27.49,2.39-41.03,3.15-1.57.09-2.67,1.96-4.89,1.98-5.98.06-3.41.24-6.22.92-2.63.63-18.77,2.13-21.85,2.12-2.78-.01-5.3-2.28-5.95-2.12-1.08.27-.65,2.87-3.02,3.12-3.82.42-8.51-3.18-13.03-3.12-4.6.07-8.62,2.96-15.04,2.06-4.17-.58-5.39-4.93-11.44-2.05.58-3.92-.21-4.56-4-5.02.47-7.57,9.11.77,10-5.99,3.95-.33,5.45.09,8.43.03.65-.01.07-1.86,2-2.11,15.81-2.09,32.15-2.15,47.99-4.01,2.63-.31,6.24-2.13,1.77-3.08-.09-.45.84-.77.81-.82,13.56,4.28,18-3.04,27.7-8.8,11.31-6.72,31.76-13.08,44.58-8.97,17.06,5.47,37.78,19.29,56.73,19.77Z"/>
        <path class="cls-5" d="M949.46,290c.03.33-.03.67,0,1,.25,3.22-1.46,9.94,2,9,.25,5.01-.34,10.06-1,15v1c-.11.62.13,1.41,0,2-2.03,9.38-10.27,28.48-19,33-.42.22-2.14-.28-3.22.24-55.22,26.49-76.15-49.22-38.79-79.75,23.03-18.83,48.21-4.69,60.01,18.51Z"/>
        <path class="cls-16" d="M867.46,193c2.48-.52,2.11,1.16,2.74,2.71,2.12,5.2,7.03,17.98,10.33,21.72,1.47,1.66,17.33,13.41,19.13,13.95,2.94.88,3.93-.3,6.3-.39,4.27-.15,3.59,3.63,5.49-2.99.7,6.94,1.38,13.77,1.17,20.84,18.48,6.69,34.78,20.52,36.83,41.16-11.8-23.21-36.98-37.34-60.01-18.51-37.35,30.53-16.43,106.24,38.79,79.75,1.08-.52,2.8-.02,3.22-.24-.04,1.97-1.21,2.81-2.51,3.98-23.64,21.1-61.59,13.22-73.97-16-11.99-28.29-1.21-59.42,20.46-79.5-.95-4.98,1.09-10.49,1.11-14.98.07-16.97-3.53-35.44-9.08-51.5Z"/>
        <path class="cls-2" d="M911.46,228c-1.9,6.62-1.22,2.84-5.49,2.99-2.37.08-3.36,1.26-6.3.39-1.8-.54-17.66-12.28-19.13-13.95-3.31-3.74-8.22-16.52-10.33-21.72-.63-1.55-.26-3.23-2.74-2.71-.66-1.91-1.3-4.28-2-6,2.41-2.02.13-7.1-3-7-.34-.65-.66-1.38-1-2,3.15-4.67-2.64-6.11-4.71-8.35-.78-.85-1.27-1.56-2.29-2.65-.32-.34-.67-.65-1-1-.08-.08-.03-1-1-2-2.61-2.68-5.33-5.38-8-8,.96-6.29-4.28-5.92-8-8-2.61-1.46-2.31-1.7-4-3-.97-.75-1.92-.92-2-1-.67-.69-1.19-.66-2-2-.71-1.18,1.24-2.77-4-2-.44-.25-.71-.83-1-1-.2-5.77-8.74-7.79-7.84-13.25,1.17-7.12,7.8-10.59,13.84-12.75,49.15,19.47,76.81,63.48,82,115Z"/>
        <path class="cls-16" d="M854.46,167c1.02,1.09,1.51,1.8,2.29,2.65,2.07,2.24,7.86,3.68,4.71,8.35-1.68-3.06-6.2-6.94-7-11Z"/>
        <path class="cls-16" d="M844.46,156c-2.65-2.59-6.06-4.66-8-8,3.72,2.08,8.96,1.71,8,8Z"/>
        <path class="cls-16" d="M865.46,187c-.79-1.94-2.13-5.31-3-7,3.13-.1,5.41,4.98,3,7Z"/>
        <path class="cls-16" d="M824.46,140c5.24-.77,3.29.82,4,2-2.02.26-2.89-1.36-4-2Z"/>
        <path class="cls-16" d="M832.46,145l-2-1c.08.08,1.03.25,2,1Z"/>
        <path class="cls-16" d="M853.46,166l-1-2c.97,1,.92,1.92,1,2Z"/>
        <path class="cls-16" d="M951.46,300c-3.46.94-1.75-5.78-2-9,1.21,2.27,1.87,6.44,2,9Z"/>
        <path class="cls-14" d="M950.46,316v-1s.16.12,0,1Z"/>
        <path class="cls-16" d="M212.96,473c.65.33.65.67,0,1v-1Z"/>
        <path class="cls-15" d="M482.46,825c1.8-8.77,11.46-17.37,19.99-19.99l-10.41,10.08c-2.17,2.76-7.77,11.57-8.38,14.66-1.4,7.15,6.1,19.58,5.8,27.26-.08,0-.5.93-.98,1.01-1.18-11.69-8.47-21.11-6.02-33.01Z"/>
        <path class="cls-15" d="M480.46,825c-1.86-.73-7.68-22.99-8.7-26.79-.45-1.69-2.17-4.93-.3-6.21,3.14,10.91,7.35,21.72,9,33Z"/>
        <path class="cls-8" d="M511.46,855c-.92.47-1.24,1.63-3.97,2.53-2.29.76-8.07,2.36-10.03.47,4.8-.76,9.24-1.73,14-3Z"/>
        <path class="cls-5" d="M276.46,599c2.65-.08,5.35-.04,8,0-.37.31-.59,1.49-1,2-4.07.05-10.17.69-14.64.87-1.93.08-3.88,1.24-3.36-1.87,1.98-.11,3.62-.98,4-1,2.31-.14,4.68.07,7,0Z"/>
        <path class="cls-1" d="M77.46,602c5.83-2.85,10.32-1.18,15.67-1.38,31.52-1.16,64.22,1.08,95.87,2.34,51.26,2.03,102.43,5.29,153.92,8.08,14.57.79,45.4-1.57,56.51,6.49l9.03,11.47c.22.55.69,1.17,1,2-1.38,1.26.67,9.11,3,8,21.09,80.46,49.86,160.47,70,241l-1.33,12.72c-2.38,3.25-4.15,1.67-6.99,2.29-.84.18-.32,2.02-2.15,2.1-3.26.16-7.94-2.68-12.05-3.1-11.54-1.18-28.18-1.82-39.95-2.05-6.02-.12-14.16,1.54-19.04,1.1-3.42-.31-7.73-2.59-12.01-3.04-12.41-1.32-25.22-.43-37.03-1.98-7.21-.94-25.74-3.35-32.01-2.94-1.63.11-2.62,2.01-4.85,1.93-2.09-.08-5.62-2.64-9.09-3.03-5.7-.63-12.2.96-17.22.73-9.31-.41-20.11-3.05-29.79-3.72-21.77-1.52-43.33-3.27-65-5-12.03-.96-30.88,3.7-37.25-9.75-8.26-17.44-15.48-43.37-21.23-62.27-2.78-9.14-4.79-18.64-7.72-27.79-.5-1.56-.79-3.23-2.28-4.21-3.51-12.24-7.38-24.7-11-37-11.12-37.82-21.94-84.35-37-120-.76-5.41-1.1-7.71,0-13ZM258.2,715.24c-17.15,2.95-19.09,25.66-13.24,38.76,6.46,14.44,26.92,26.19,40.97,14.98,21.33-17.02,1.22-58.72-27.73-53.73Z"/>
        <path class="cls-2" d="M198.46,597c21.84,1.08,43.1,4.46,65,3,.66-.04,1.34.04,2,0-.52,3.1,1.43,1.95,3.36,1.87,4.47-.18,10.57-.82,14.64-.87,1-.01,2,.01,3,0,.09.56-.17,1.88,0,2,.53.4,11.58.42,13.01-1,3.65.08,7.35-.1,11,0-.56,3.03,1.53,1.93,3.46,2,3.58.14,8.34.72,11.54-1,2.33.07,4.68-.09,7,0,1.33.05,2.67-.02,4,0-1.15,3.11,6.64,2.19,9.58,2.04,1.29-.07,2.28-1.03,2.42-1.04,1.99-.09,4.01.04,6,0-.56,3.02,1.53,1.94,3.45,2,10.23.34,33.4-.48,41.55,5,1.47.99,6.37,8.41,7.19,10.31,1.12,2.6,1.02,5.68,1.81,7.69l-9.03-11.47c-11.11-8.07-41.94-5.7-56.51-6.49-51.49-2.79-102.66-6.05-153.92-8.08-31.66-1.26-64.35-3.5-95.87-2.34-5.35.2-9.83-1.47-15.67,1.38.18-.88-.25-2.4,0-3,1.08-2.57,6.91-5.37,9.63-5.68,37.08,1.91,74.37,1.85,111.37,3.68Z"/>
        <path class="cls-5" d="M402.46,606c.27,2.38-.83,4.08-3,5-8.14-5.48-31.31-4.66-41.55-5-1.93-.06-4.01,1.02-3.45-2,6.84-.13,14.07,1,20.5,1h17c2.09,0,7.52.79,10.5,1Z"/>
        <path class="cls-2" d="M412.46,639c-2.33,1.11-4.38-6.74-3-8,.92,2.47,2.8,5.04,3,8Z"/>
        <path class="cls-15" d="M644.46,279c3.14-.57,1.71,1.55,2.02,3.43,2.99,18.25,6.94,39.22,8.73,57.4.19,1.93.54,3.45-.75,5.17-19.63-15.99-15.65-44.97-10-66Z"/>
        <path class="cls-13" d="M658.46,348c-1.55-.73-2.7-1.94-4-3,1.29-1.72.94-3.24.75-5.17-1.79-18.18-5.74-39.15-8.73-57.4-.31-1.88,1.12-4-2.02-3.43.56-2.07,1.72-4.77,2-6,5.1,24.78,6.12,50.39,12,75Z"/>
        <path class="cls-2" d="M181.46,879c-2,0-4,0-6,0,1.79-2.69,4.73-.25,6,0Z"/>
        <path class="cls-2" d="M166.46,878l.51-.99c2.34-.21,2.82-.38,2.49,1.99-1.69-.1-2.66-.96-3-1Z"/>
        <path class="cls-2" d="M161.46,878c-.61-2.97,2.55-3.13,2,0-.67-.02-1.33.01-2,0Z"/>
        <path class="cls-5" d="M347.46,603c.47.07.89.52,1,1-.14,0-1.13.97-2.42,1.04-2.94.15-10.73,1.07-9.58-2.04,3.4.05,7.86-.46,11,0Z"/>
        <path class="cls-5" d="M325.46,603c-3.2,1.72-7.96,1.14-11.54,1-1.92-.07-4.01,1.03-3.46-2,4.96.14,10.45.85,15,1Z"/>
        <path class="cls-5" d="M299.46,602c-1.42,1.41-12.48,1.39-13.01,1-.16-.12.1-1.44,0-2,4.64-.05,9.5.92,13,1Z"/>
        <path class="cls-5" d="M779.46,327c-.26.37-.69.66-1,1-5.75,4.97-12.5,3.97-17-2-.29-.64-.76-1.09-1-2,2.34-2.29-.09-5.66-.04-8.45.06-3.37,2.45-6.96,2.04-10.55.92-1.69.59-1.4,2-3,19.81-11.31,20.25,11.72,15,25Z"/>
        <path class="cls-5" d="M678.46,328c-3.59-7.27-6.12-28.79,5.59-28.91,11.78-.12,12.34,16.78,9.93,24.93-2.29,7.72-6.27,7.69-13.52,5.98-1-.75-1.25-1.11-2-2Z"/>
        <path class="cls-13" d="M802.35,271.91c-1.62,1.14-13.65-3.91-16.69-4.61-12.88-2.98-23.39-1.93-36.2.7-2.5-11.93,17.41-12.55,25.37-11.87,5.66.49,25.63,5.96,28.19,10.88.61,1.17-.04,4.45-.67,4.89Z"/>
        <path class="cls-13" d="M694.46,268.99c-11.27-1.85-21.04-1.34-32,1.5-2.57.66-11.82,5.96-12.99,1.98-1.73-5.92,16.31-12.04,20.5-12.46,6.97-.7,25.25-1.08,24.49,8.99Z"/>
        <path class="cls-13" d="M766.45,387c-4,11.16-19.95,19.02-31.38,17.89-3.72-.37-17.79-5.06-17.58-9.4.14-2.96,8.55.36,10.49.5,13.43.95,27.38-1,38.48-8.99Z"/>
        <path class="cls-3" d="M718.46,304.01c.21,4.03.05,7.84-.65,11.84-3.05,17.29-27.67,42.61,2.61,49.71,2.6.61,7.88-.75,7.05,2.44-6.17-.24-12.75,1.13-18.35-2.14-17.82-10.44-1.58-31.32,2.61-45.09.41-1.36,3.52-20.54,6.73-16.76Z"/>
        <path class="cls-3" d="M678.46,328c-10.09-12.04-3.67-37.03,11.19-28.68,12.32,6.92,7.89,38.48-6.78,32.77-1.7-.66-1.74-1.59-2.41-2.08,7.25,1.7,11.24,1.74,13.52-5.98,2.41-8.14,1.85-25.04-9.93-24.93-11.71.12-9.18,21.64-5.59,28.91Z"/>
        <path class="cls-3" d="M779.46,327c5.25-13.28,4.81-36.31-15-25,4.89-5.53,8.21-7.06,14.47-1.97,7.68,6.25,5.79,19.66.53,26.97Z"/>
        <path class="cls-3" d="M760.46,324c-1.99-7.64-1.8-12.01,2-19,.41,3.59-1.97,7.18-2.04,10.55-.05,2.8,2.38,6.17.04,8.45Z"/>
        <path class="cls-3" d="M761.46,326c4.5,5.97,11.25,6.97,17,2-6.88,7.56-12.75,7.5-17-2Z"/>
        <path class="cls-10" d="M642.46,812.02c1.39,1.5-.36,1.71-1.27,2.22-4.41,2.44-10.97,3.81-15.77,6.22-20.21,10.2-32.04,25.3-46.74,41.26-5.81,6.31-2.24-3.08-.42-6.42,7.11-13.01,31.63-33.73,45.21-39.79,3.27-1.46,16.57-6.1,19-3.48Z"/>
        <path class="cls-10" d="M603.46,868c-1.89-2.29.32-4.11,1.6-5.91,9.75-13.74,34.66-34.58,52.03-35,2.32-.06,6.55,1.77,4.38,3.9-.15.15-3.05-.07-4.23.25-13.46,3.66-27.81,13.65-38.25,22.78-4.35,3.81-9.3,10.64-13.53,12.97-.65.36-1.37.61-2,1Z"/>
        <path class="cls-9" d="M258.2,715.24c28.95-4.99,49.06,36.71,27.73,53.73-14.05,11.21-34.51-.54-40.97-14.98-5.86-13.1-3.92-35.8,13.24-38.76Z"/>
      </g>
    </g>
  </g>
</svg>