<?xml version="1.0" encoding="UTF-8"?>
<svg id="Layer_2" data-name="Layer 2" xmlns="http://www.w3.org/2000/svg" viewBox="0 0 1173.61 1143.54">
  <defs>
    <style>
      .cls-1 {
        fill: #cc3429;
      }

      .cls-2 {
        fill: #71d176;
      }

      .cls-3 {
        fill: #4a894c;
      }

      .cls-4 {
        fill: #446c49;
      }

      .cls-5 {
        fill: #fff;
      }

      .cls-6 {
        fill: #f47361;
      }

      .cls-7 {
        fill: #dc3f2e;
      }
    </style>
  </defs>
  <g id="Layer_1-2" data-name="Layer 1">
    <path class="cls-3" d="M1115.35,365.23c-8.39-132.88-118.59-231.05-249.55-234.62l-131.31.02c-5.44-.32-10.91-.53-16.43-.53h-318.26c-5.58,0-11.11.22-16.61.55l-132.65-.04C124.97,132.82,11.33,232.19,2.8,359.44c-8.89,132.54,6.88,274.87,0,408.43,8.21,90.86,65.79,172.54,148.78,210.09,8.82,3.99,44.9,14.64,47.71,18.74,2.25,3.28,2.64,8.28,3,12.19,3.16,34.1-3.86,74.36.14,108.1,2.68,22.63,26.2,34.29,44.88,20.82,50.48-36.39,99.58-78.64,149.41-114.63,9.05-6.54,30.34-20.79,40.46-22.28l440.02-.42c127.69-10.25,230.39-114.24,238.26-242.12-6.18-128.9,7.99-265.09-.1-393.14Z"/>
    <rect class="cls-5" x="188.7" y="50.47" width="866.28" height="840.52" rx="281.74" ry="281.74"/>
    <path class="cls-2" d="M1173.61,677.16c-7.86,127.88-110.56,231.87-238.26,242.12l-440.02.42c-10.12,1.49-31.4,15.74-40.46,22.28-49.83,35.99-98.92,78.24-149.41,114.63-18.68,13.47-42.2,1.8-44.88-20.82-4-33.75,3.02-74-.14-108.1-.36-3.91-.76-8.91-3-12.19-2.81-4.11-38.89-14.75-47.71-18.74-82.99-37.54-140.57-119.22-148.78-210.09,6.88-133.56-8.89-275.89,0-408.43,8.54-127.25,122.17-226.62,247.75-228.82l253.53.07c-1.86,24.12-6.84,48.01-1.93,72.17-27.47-14.75-57.29-26.29-88.5-30.15-18.56-2.29-64.77-3.5-79.51,7.35-24.35,17.91,8.99,64.73,25.6,78.82-20.23,10.03-46.49,15.97-65.86,27.13-107.93,62.22-164.64,177.74-161.99,301.46,8.25,385.63,545.07,486.59,772.82,225.95,96.55-110.49,111.61-290.86,35.64-417.46-38.41-64-102.29-113.65-174.29-134.25-.77-2.87.74-3.15,1.87-4.76,5.31-7.63,13.12-13.91,18.64-23.14,8.97-15.01,24.5-48.45.83-57.05-19.21-6.98-56.73-6.69-77.32-4.27-25.46,2.99-50.47,10.89-73.09,22.77,5.06-21.57,2.81-43.06,2.97-64.6l225.85-.04c130.96,3.57,241.16,101.74,249.55,234.62"/>
    <path class="cls-7" d="M888.76,260.26c56.58,41.56,94.22,98.48,107.65,168.62,5.47,28.56,12.92,50.52-15.26,67.17-66.05,39.04-228.08,52.55-305.88,54.84-110.42,3.25-308.47-4.23-408.59-49.13-33.72-15.13-33.84-21.58-28.87-58.02,9.89-72.52,53.66-140.61,109.88-181.58,61.49,24.15,128.98,5.98,189.84-11.38,3.2,2.99-9.48,10.61-10.73,12.03-11.88,13.42-23.98,29.43-30.75,46.15-1.59,3.94-14.52,43.99-8.79,44.38,13.45-3.44,26.91-7.94,39.57-13.59,27.84-12.43,59.03-35.46,76.43-60.28l16.85-19.2,28.48,36.09c28.76,27.72,63.37,47.53,102.51,56.97,2.79-.19-6.08-33.28-7.16-36.52-9.22-27.71-28.19-46.68-46.91-67.94,60.35,17.92,131.36,39.21,191.73,11.38Z"/>
    <path class="cls-7" d="M981.07,534.87c.6-.33,18.39-10.12,19.69-8.75.85,22.64-3.8,46.71-10.44,68.35-50.6,165.03-227.4,250.45-393.06,243.16-160.06-7.03-327.36-104.12-357.17-271.29-.64-3.59-6.83-43.8-1.57-42.11,42.3,22.76,92.05,34.26,139.21,43.06,163.8,30.55,393.99,30.74,554.26-15.99,12.3-3.59,39.43-11.09,49.09-16.44Z"/>
    <path class="cls-4" d="M347.7,262.16c31.99-23.31,59.16-42.26,96.42-52.63,17.62-4.9,35.49-7.5,53.54-10.06l-26.05-14.53c-17.15-13.86-31.15-24.91-44.21-43.41-2.18-3.08-13.35-19.96-11.36-21.78,16.7-2.2,33.54-2.06,50.29.01,38.53,4.77,85.55,27.78,114.46,49.96.93.71,7.84,14.08,10.89,8.92,3.31-5.6,7.96-40.3,8.49-48.48,1.42-21.89-.12-44.15-4.71-65.52-3.74-17.38-23.05-56.34,4.67-63.64,20.88-5.5,30.49,12.61,37.82,28.75,20.89,46.01,17.98,101.91,9.72,150.74,3,.67,3.94-1.02,5.79-2.78,18.06-17.19,43.97-36.07,68.68-45.2,33.54-12.38,70.36-16.57,105.87-12.77,5,4.24-44.87,56.82-51.73,59.33l-33.68,20.4c28.82,2.98,57.38,9.38,83.61,21.77,21.92,10.35,45.88,26.76,62.56,39.01-60.37,27.83-131.38,6.54-191.73-11.38,18.72,21.25,37.69,40.23,46.91,67.94,1.08,3.23,9.95,36.32,7.16,36.52-39.14-9.44-73.76-29.25-102.51-56.97l-28.48-36.09-16.85,19.2c-17.4,24.82-48.59,47.85-76.43,60.28-12.66,5.65-26.12,10.14-39.57,13.59-5.73-.39,7.2-40.44,8.79-44.38,6.77-16.72,18.87-32.74,30.75-46.15,1.26-1.42,13.93-9.04,10.73-12.03-60.86,17.36-128.34,35.54-189.84,11.38Z"/>
    <path class="cls-6" d="M319.8,357.76s22.54-41.86,45.09-38.64c22.54,3.22-6.31,38.64-6.31,38.64,0,0-32.34,54.75-29.12,70.85s-22.54,19.32-22.54,19.32c0,0-19.32-3.22-9.66-35.42s22.54-54.75,22.54-54.75Z"/>
    <path class="cls-1" d="M921.65,555.86l79.11-29.74s1.36,121.57-98.99,207.21c-100.35,85.64-250.4,103.41-250.4,103.41,0,0,244.78-85.51,270.28-280.89Z"/>
    <path class="cls-1" d="M929.38,516.86s6.99-143.54,0-220.36c0,0,27.76,21.01,49.76,74.64,10.04,24.48,24.88,85.3,21.33,92.41,0,0,4.58,26.94-38.53,42.07-21.89,7.69-32.56,11.24-32.56,11.24Z"/>
  </g>
</svg>