<?xml version="1.0" encoding="UTF-8"?>
<svg id="Layer_2" data-name="Layer 2" xmlns="http://www.w3.org/2000/svg" viewBox="0 0 1475.4 1075.74">
  <defs>
    <style>
      .cls-1 {
        fill: #113c50;
      }

      .cls-2 {
        fill: #1f4c7a;
      }

      .cls-3 {
        fill: #ee3c21;
      }

      .cls-4 {
        fill: #0f8071;
      }

      .cls-5 {
        fill: #f24723;
      }

      .cls-6 {
        fill: #1f4768;
      }
    </style>
  </defs>
  <g id="Layer_1-2" data-name="Layer 1">
    <g>
      <path class="cls-6" d="M150.76,622.25s-235.11-52.1-111.11,231.47c0,0,206,356.28,1054,166.19s18.5-262.31,18.5-262.31"/>
      <path class="cls-2" d="M147.22,614.9s-235.11-50.15-111.11,222.85c0,0,206,343,1054,160s18.5-252.54,18.5-252.54"/>
      <path class="cls-4" d="M401.11,423.74c.29.97.97,4.15,1.99,3.99,3.27-9.6,9.74-17.47,16.07-25.19,13.74-16.76,36.6-37.21,55.64-47.6,4.34-2.37,21.9-12.68,18.1.1-.96,3.21-13.43,8.52-17.11,10.9-27.82,18.05-56.98,46.38-69.59,77.47-.67,1.65-1.51,2.62-.1,4.34.65-1.19,3.67-6.12,4.3-6.69,3.97-3.62,33.96-10.65,41.95-13.56,23.45-8.55,45.87-21.18,60.75-41.75-1.95-25.23-.13-47.3,5-72,.28-1.37.84-2.31,1-3,.2-.87-.21-2.15,0-3-36.82-5.1-79.91,11.22-101.41,42.09-13.18,18.93-23.36,51.3-16.59,73.91Z"/>
      <path class="cls-3" d="M603.13,549.74c-23.46,14.24-43.74,37.12-67.61,50.08-14.81,8.04-30.2,10.52-46.28,15,3.14,10.07,6.21,25.75,10.29,34.72.58,1.27.9,2.5,2.38,3.04,34.52,9.26,69.67,16.15,104.47,24.06,4.81-2.75,10.68-5.18,16.27-5.42,5.52-31.23,18.39-60.22,30.46-89.37-16.68-8.42-32.27-18.76-47.13-30.11-1.74-1.33-2.67-1.85-2.85-2Z"/>
      <path class="cls-5" d="M869.64,126.05s190.23,37.84,209.66,234.21c0,0,17.39,138.31-104.83,212.85,0,0,40.4,63.29,43.47,163.52l-109.43-12.27s-69.55,28.64-129.89,5.11c0,0-18.92-24.03-45.51-14.83,0,0-37.84,14.32-53.18,1.02-15.34-13.3-6.14-27.61-6.14-27.61l-55.75-12.29s10.75-58.28,29.16-89.98c0,0-141.14-71.59-142.16-212.73-1.02-141.14,98.18-205.57,98.18-205.57,0,0,76.71-65.46,266.43-41.42Z"/>
      <path class="cls-2" d="M110.11,609.74v304h1024v-165c-39.4-5.49-78.84-10.87-118.25-16.29-1.01-.14-2.27-1.7-2.75-1.71-5.69-.13-8.81-.15-15-1-27.96-3.83-56.45-7.16-84-12-37.22,21.12-76.32,25.87-118.19,17.69-3.84-.75-16.04-4.95-18.31-4.73-1.54.15-5.67,6.32-9.15,7.89-2.43,1.1-4.61,1.32-7.14,1.86-71.67,15.16-147.26,21.54-219.6,33.19-91.72-22.89-185.03-40.04-276.62-63.38-10.84-2.76-21.05-4.34-26.03-15.97-8.29-19.36-14.46-48.53-20.96-69.54-23.63-3.28-47.26-6.56-70.89-9.85-12.37-1.72-24.74-3.44-37.11-5.15Z"/>
      <path class="cls-1" d="M378.12,260.23c3.02,25.06,6.2,50.18,6,75.51,1.93-.31,1.58-2.17,2.09-3.4,4.2-10.25,12.98-30.77,15.41-40.6.49-1.98.77-3.98.49-6,2.42.53,2.07-1.23,2.82-2.63,22.39-41.93,41.94-78.7,75.16-113.89,6.04-6.4,12.94-8.38,10.1,3.1-30.42,36.69-57.58,73.37-76.56,117.43-.45,1.04-2.58,3.34-.51,3.99-.96.8-2.45,3.22-3.06,4.45-7.08,14.26-15.14,39.87-19.44,55.56-5.58,20.33-5.89,35.55-6.54,56.46-.4,12.64-.3,25.3-.82,37.91.76,2.22,8.39,2.51,10.85,2.61.26-9.66,8.39-17.23,7.02-26.99.29.97.97,4.15,1.99,3.99,3.27-9.6,9.74-17.47,16.07-25.19,13.74-16.76,36.6-37.21,55.64-47.6,4.34-2.37,21.9-12.68,18.1.1-.96,3.21-13.43,8.52-17.11,10.9-27.82,18.05-56.98,46.38-69.59,77.47-.67,1.65-1.51,2.62-.1,4.34-.51.93-2.49,4.28-2,4.99,11.73,3.29,25.26,3.55,36.83,6.68,13.72,3.7,15.04,10.24,19.17,22.33,10.73,31.42,20.22,65.09,30,97,3.42,11.16,6.49,22.73,10,34,2.89,9.28,5.73,23.74,9.49,32.01.53,1.17.83,2.31,2.2,2.8,31.83,8.53,64.23,14.89,96.31,22.19,20.84,4.74,41.67,10.18,62.52,14.98,1.06-.64.3-2.82.48-3.98,3.56-22.91,33.21-40.15,53.58-45.92,31.12-8.81,60.35-1.55,90.62-7.38,26.73-5.15,49.2-27.55,67.31-46.69,3.53-3.73,9.47-15.53,15.95-7.98,3.52,4.1,1.05,7.92-1.49,11.44-10.67,14.75-37.16,38.45-53.3,46.7-44.38,22.68-96.35-2.08-139.99,26.01-11.52,7.42-27.88,25.23-20.23,39.89,10.17,19.5,43.34,5.18,59.11,4.89.98-.02,9.23,1.07,10.68,1.3,8.07,1.31,16.03,3.02,21.2,9.81,1.23,1.62,2.06,5.37,3.32,5.93,6.24,2.75,24.61,6.03,31.87,6.89,31.22,3.67,72.33-2.16,98.69-20.06,16.87-11.46,30.45-26.82,41.97-43.51,3.86-3.11,10.21-.68,10.69,4.25.51,5.21-11.64,19.19-15.46,23.46-9.46,10.57-20.54,19.12-31.51,27.99-37.22,21.12-76.32,25.87-118.19,17.69-3.84-.75-16.04-4.95-18.31-4.73-1.54.15-5.67,6.32-9.15,7.89-2.43,1.1-4.61,1.32-7.14,1.86-71.67,15.16-147.26,21.54-219.6,33.19-91.72-22.89-185.03-40.04-276.62-63.38-10.84-2.76-21.05-4.34-26.03-15.97-8.29-19.36-14.46-48.53-20.96-69.54-20.41-65.98-41.37-132.06-60.04-198.46.81-6.37,5.18-12.07,11.6-13.47,48.59,5.97,96.87,16.39,145.23,24.64,13.38,2.28,26.78,4.4,40.21,6.28-6.09-20.11-10.85-40.72-17.98-60.51-2.26-6.28-3.31-13.26-9.02-16.48,1.73-1.05,2.21-.95,1.84-3.21-.64-3.8-4.12-11.44-5.82-15.3-17.18-39.15-45.18-75.75-74.96-106.02-4.53-4.37-16.24-13.02-19.11-17.91-3.41-5.81,2.12-9.59,7.35-6.55,34.74,30.64,64.74,65.57,86.42,106.78,5.39,10.24,9.54,21.15,14.45,31.61.69,1.47.53,3.11,2.84,2.61-.43,9.44,10.01,33.59,13.27,44.23,4.35,14.23,8.4,28.61,11.67,43.13l7.05,1.63c.23-4.14-.28-8.39-.03-12.54,4.92-82.38-1.11-151.57-14.96-232.46-7.78-45.45-16.01-91.57-26.78-136.81-1.63-6.06,7.13-9.1,9.3-3.21,9.88,41.77,18.17,83.82,25.95,126.05.49,2.67,2.23,5.24,2.54,6.97,3.72,20.66,6.46,43.33,9.01,64.49ZM331.19,563.18c-29.5-6.95-20.25,49.6,5.59,50.19,3.22.07,7.91-1.46,10.02-3.93,10.11-11.79-.5-42.69-15.61-46.25Z"/>
      <path class="cls-4" d="M867.11,133.74c24.74-13.36,50.42-25.03,76.91-34.59,5.75-4.62,3.83-8.81-2.22-11.59-10.08-4.64-35.81-5.56-47.18-4.8-34.18,2.29-66.34,22.2-94.5,39.99,2.95-21.96,7.09-45.55,15.24-66.25,2.57-6.54,10.37-18.76,10.77-24.27.92-12.56-14.66-19.51-25.25-15.2-6.72,2.74-13.3,17.98-16.25,24.75-9.55,21.94-15.34,46.03-16.54,69.96-.61.74-6.61-4.29-7.47-5.02-17.45-14.9-32.15-38.99-48.01-55.99-2.72-2.91-9.48-10.57-13.19-10.73-2.45-.11-5.85,2.9-6.3,5.27-.71,3.78-.37,14.74-.07,19.02.98,13.86,6.82,29.43,13.52,41.48l12.52,18.97c-12.4-3.17-24.67-4.43-37.48-3.99-15.34.54-34.55,3.35-48.77,9.23-3.11,1.28-20.76,9.45-13.79,14.32,1.86,1.3,24.42.12,29.37.54,3.36.29,8.24,1.24,11.69,1.89,26.48,5.05,51.62,19.36,79,19.01l-42.5,54.01c-1.56,3.16.16,5.05,3.22,5.76,17.19,3.98,49.78-14.77,63.59-24.96,12.18-8.99,22.63-19.73,30.25-32.88,21.34,8.84,43.03,16.82,64.4,25.59,15.58,6.39,33.37,16.65,49.03,21.47,3.47,1.07,15.86,4.41,16.8-.63.74-3.97-9.38-16.98-12.29-20.38-18.06-21.18-43.71-39.57-69.51-50l24.99-9.99Z"/>
      <path class="cls-4" d="M328.11,366.74c1.73-1.05,2.21-.95,1.84-3.21-.64-3.8-4.12-11.44-5.82-15.3-17.18-39.15-45.18-75.75-74.96-106.02-4.53-4.37-16.24-13.02-19.11-17.91-3.41-5.81,2.12-9.59,7.35-6.55,34.74,30.64,64.74,65.57,86.42,106.78,5.39,10.24,9.54,21.15,14.45,31.61.69,1.47.53,3.11,2.84,2.61.34-7.58,4.05-17.35,4.87-25.63,8.73-88.08-54.51-152.06-138.64-164.1-14.39-2.06-30.47-3.67-32.24,15.22-1.04,11.12,7.59,40.96,11.54,52.47,18.21,53.01,47.97,87.1,98.1,111.9,13.39,6.62,31.28,11.34,43.36,18.14Z"/>
      <path class="cls-4" d="M402.11,285.74c2.42.53,2.07-1.23,2.82-2.63,22.39-41.93,41.94-78.7,75.16-113.89,6.04-6.4,12.94-8.38,10.1,3.1-30.42,36.69-57.58,73.37-76.56,117.43-.45,1.04-2.58,3.34-.51,3.99,6.2-5.18,28.35-11.67,37.38-16.12,22.77-11.22,47.48-28.97,62.03-49.97,14.81-21.38,33.77-69.55,31.57-95.4-2.75-32.36-50.49-13.59-67.28-4.31-45.15,24.97-84.99,78.63-80.69,132.28.72,8.94,4.91,17.78,5.98,25.52Z"/>
      <path class="cls-4" d="M358.11,202.74c-7.78-45.45-16.01-91.57-26.78-136.81-1.63-6.06,7.13-9.1,9.3-3.21,9.88,41.77,18.17,83.82,25.95,126.05.49,2.67,2.23,5.24,2.54,6.97,25.71-30.73,33.85-67.61,22.94-106.44-7.29-25.96-32.66-68.87-54.72-84.51-10.09-7.15-20.42-6.73-27.39,4.29-13.25,20.96-22.48,78.49-20.82,103.16,2.95,43.95,32.11,71.3,68.99,90.51Z"/>
      <path class="cls-3" d="M562.11,218.74l1-2c-.72.91-.83,1.78-1,2Z"/>
      <path class="cls-1" d="M744.35,348.94c-20.31-2.94-21.98,41.68-9.74,49.81,5.36,3.56,12.81,2.95,17.03-1.98,8.52-9.94,8.96-45.48-7.29-47.84Z"/>
      <path class="cls-1" d="M605.36,335.91c-18.61-3.06-22.55,39.5-11.17,49.26,5.71,4.9,14,3.42,18.37-2.48,7.55-10.19,9.37-44.04-7.2-46.77Z"/>
      <path class="cls-1" d="M629.37,415.01c-4.65,4.38-.69,10.71,2.33,14.65,13.96,18.17,51.72,19.81,67.96,4.13,3.72-3.59,8.54-11.42,3.55-15.63-7.05-5.93-11.45,3.82-16.15,7.02-11,7.49-31.24,7.21-41.88-.99-3.71-2.86-8.89-15.68-15.8-9.18Z"/>
      <path class="cls-3" d="M578.11,527.74c.32.35.68.66,1,1l-.02-2.01-.98,1.01Z"/>
      <path class="cls-3" d="M591.11,540.74c-.33-.33-.63-.72-1-1,.25.4.7.65,1,1Z"/>
      <path class="cls-4" d="M346.79,609.43c10.11-11.79-.5-42.69-15.61-46.25-29.5-6.95-20.25,49.6,5.59,50.19,3.22.07,7.91-1.46,10.02-3.93Z"/>
      <path class="cls-5" d="M1011.61,325.74c-.65.33-.65.67,0,1v-1Z"/>
    </g>
  </g>
</svg>