<?xml version="1.0" encoding="UTF-8"?>
<svg id="Layer_1" data-name="Layer 1" xmlns="http://www.w3.org/2000/svg" viewBox="0 0 1280 299.33">
  <defs>
    <style>
      .cls-1 {
        fill: #536d87;
      }

      .cls-2 {
        fill: #cc3429;
      }

      .cls-3 {
        fill: #71d176;
      }

      .cls-4 {
        fill: #4a894c;
      }

      .cls-5 {
        fill: #446c49;
      }

      .cls-6 {
        fill: #fff;
      }

      .cls-7 {
        fill: #f47361;
      }

      .cls-8 {
        fill: #7b9ec6;
      }

      .cls-9 {
        fill: #dc3f2e;
      }
    </style>
  </defs>
  <rect class="cls-6" x="121" y="12.44" width="189" height="197" rx="48.2" ry="48.2"/>
  <g>
    <g>
      <rect class="cls-1" y="63.74" width="1280" height="201.7"/>
      <rect class="cls-8" y="38.44" width="1280" height="201.7"/>
    </g>
    <g>
      <path class="cls-4" d="M330.75,95.6c-2.2-34.78-31.04-60.48-65.32-61.41h-34.37c-1.42-.08-2.86-.13-4.3-.13h-83.31c-1.46,0-2.91.06-4.35.14h-34.72c-32.87.57-62.62,26.58-64.85,59.89-2.33,34.69,1.8,71.95,0,106.91,2.15,23.78,17.22,45.17,38.94,54.99,2.31,1.04,11.75,3.83,12.49,4.91.59.86.69,2.17.79,3.19.83,8.93-1.01,19.46.04,28.3.7,5.92,6.86,8.98,11.75,5.45,13.21-9.53,26.07-20.58,39.11-30,2.37-1.71,7.94-5.44,10.59-5.83l115.18-.11c33.43-2.68,60.31-29.9,62.37-63.38-1.62-33.74,2.09-69.39-.03-102.91Z"/>
      <rect class="cls-6" x="88.19" y="13.21" width="226.76" height="220.01" rx="109.48" ry="109.48"/>
      <path class="cls-3" d="M346,177.25c-2.06,33.47-28.94,60.69-62.37,63.38l-115.18.11c-2.65.39-8.22,4.12-10.59,5.83-13.04,9.42-25.89,20.48-39.11,30-4.89,3.52-11.05.47-11.75-5.45-1.05-8.83.79-19.37-.04-28.3-.09-1.02-.2-2.33-.79-3.19-.74-1.07-10.18-3.86-12.49-4.91-21.72-9.83-36.8-31.21-38.94-54.99,1.8-34.96-2.33-72.22,0-106.91,2.23-33.31,31.98-59.32,64.85-59.9l66.36.02c-.49,6.31-1.79,12.57-.5,18.89-7.19-3.86-15-6.88-23.16-7.89-4.86-.6-16.95-.92-20.81,1.92-6.37,4.69,2.35,16.94,6.7,20.63-5.3,2.62-12.17,4.18-17.24,7.1-28.25,16.29-43.1,46.53-42.4,78.91,2.16,100.94,142.68,127.37,202.29,59.14,25.27-28.92,29.21-76.14,9.33-109.27-10.05-16.75-26.77-29.75-45.62-35.14-.2-.75.19-.82.49-1.25,1.39-2,3.44-3.64,4.88-6.06,2.35-3.93,6.41-12.68.22-14.93-5.03-1.83-14.85-1.75-20.24-1.12-6.66.78-13.21,2.85-19.13,5.96,1.32-5.65.74-11.27.78-16.91h59.12c34.28.92,63.13,26.62,65.32,61.4"/>
      <path class="cls-9" d="M271.44,68.13c14.81,10.88,24.66,25.78,28.18,44.14,1.43,7.48,3.38,13.22-3.99,17.58-17.29,10.22-59.7,13.76-80.07,14.35-28.9.85-80.75-1.11-106.95-12.86-8.83-3.96-8.86-5.65-7.56-15.19,2.59-18.98,14.05-36.81,28.76-47.53,16.1,6.32,33.76,1.57,49.69-2.98.84.78-2.48,2.78-2.81,3.15-3.11,3.51-6.28,7.7-8.05,12.08-.42,1.03-3.8,11.52-2.3,11.62,3.52-.9,7.04-2.08,10.36-3.56,7.29-3.25,15.45-9.28,20.01-15.78l4.41-5.03,7.45,9.45c7.53,7.26,16.59,12.44,26.83,14.91.73-.05-1.59-8.71-1.87-9.56-2.41-7.25-7.38-12.22-12.28-17.78,15.8,4.69,34.39,10.26,50.19,2.98Z"/>
      <path class="cls-9" d="M295.6,140.01c.16-.09,4.81-2.65,5.15-2.29.22,5.93-1,12.23-2.73,17.89-13.25,43.2-59.52,65.56-102.89,63.65-41.9-1.84-85.69-27.25-93.49-71.01-.17-.94-1.79-11.46-.41-11.02,11.07,5.96,24.09,8.97,36.44,11.27,42.88,8,103.13,8.05,145.08-4.18,3.22-.94,10.32-2.9,12.85-4.3Z"/>
      <path class="cls-5" d="M129.81,68.62c8.37-6.1,15.49-11.06,25.24-13.78,4.61-1.28,9.29-1.96,14.02-2.63l-6.82-3.8c-4.49-3.63-8.15-6.52-11.57-11.36-.57-.81-3.49-5.22-2.97-5.7,4.37-.58,8.78-.54,13.16,0,10.08,1.25,22.39,7.27,29.96,13.08.24.19,2.05,3.69,2.85,2.33.87-1.46,2.08-10.55,2.22-12.69.37-5.73-.03-11.56-1.23-17.15-.98-4.55-6.03-14.75,1.22-16.66,5.47-1.44,7.98,3.3,9.9,7.52,5.47,12.04,4.71,26.68,2.54,39.46.78.18,1.03-.27,1.52-.73,4.73-4.5,11.51-9.44,17.98-11.83,8.78-3.24,18.42-4.34,27.71-3.34,1.31,1.11-11.75,14.87-13.54,15.53l-8.82,5.34c7.55.78,15.02,2.46,21.89,5.7,5.74,2.71,12.01,7,16.38,10.21-15.8,7.28-34.39,1.71-50.19-2.98,4.9,5.56,9.87,10.53,12.28,17.78.28.85,2.6,9.51,1.87,9.56-10.24-2.47-19.31-7.66-26.83-14.91l-7.45-9.45-4.41,5.03c-4.56,6.5-12.72,12.53-20.01,15.78-3.31,1.48-6.84,2.66-10.36,3.56-1.5-.1,1.88-10.59,2.3-11.62,1.77-4.38,4.94-8.57,8.05-12.08.33-.37,3.65-2.37,2.81-3.15-15.93,4.54-33.59,9.3-49.69,2.98Z"/>
      <path class="cls-7" d="M122.51,93.65s5.9-10.96,11.8-10.12-1.65,10.12-1.65,10.12c0,0-8.46,14.33-7.62,18.55s-5.9,5.06-5.9,5.06c0,0-5.06-.84-2.53-9.27,2.53-8.43,5.9-14.33,5.9-14.33Z"/>
      <path class="cls-2" d="M280.05,145.5l20.71-7.78s.36,31.82-25.91,54.24c-26.27,22.42-65.54,27.07-65.54,27.07,0,0,64.07-22.38,70.75-73.53Z"/>
      <path class="cls-2" d="M282.07,135.29s1.83-37.57,0-57.68c0,0,7.27,5.5,13.02,19.54,2.63,6.41,6.51,22.33,5.58,24.19,0,0,1.2,7.05-10.08,11.01-5.73,2.01-8.52,2.94-8.52,2.94Z"/>
    </g>
  </g>
  <g>
    <g>
      <path class="cls-1" d="M611.29,108.88v8.72c13.85-12.55,38.21-13.96,49.22,2.51,1.97.02,7-5.92,9.91-7.53,17.07-9.43,41.82-4.7,48.07,15.55.6,1.93,2.43,9.88,2.43,11.28v46.71h-22.42v-42.98c0-1.49-2.91-10.09-4.13-11.45-6.92-7.74-21.8-4.34-26.07,4.92-.36.78-2.19,7.37-2.19,7.77v41.73h-22.42v-47.96c0-2.3-4.77-8.04-7.01-9.18-10-5.08-24.13,3.11-24.13,14.16v42.98h-22.42v-77.23h21.18Z"/>
      <path class="cls-1" d="M912.74,80.23v105.88h-21.18v-7.47c-34.91,26.2-76.47-10.23-58.79-49.44,9.75-21.63,39.44-28.25,57.54-12.84v-36.12h22.42ZM867.58,126.61c-21.15,3.34-21.48,38.91-.2,41.95,32.4,4.63,29.91-46.64.2-41.95Z"/>
      <path class="cls-1" d="M420.7,178.64v34.88h-22.42v-104.64h21.18v8.72c34.05-28.11,76.83,9.62,58.37,49.02-9.93,21.18-39.49,27.91-57.12,12.01ZM453.89,163.25c11.24-11.97,5.06-36.04-12.68-36.99-26.77-1.42-27.2,39.99-4.97,42.43,6.29.69,13.21-.72,17.65-5.45Z"/>
      <path class="cls-1" d="M774.22,107.99c60.43-4.19,60.37,84.27-1.6,79.35-49.71-3.94-50.83-75.71,1.6-79.35ZM774.15,126.61c-22.3,3.57-20.83,38.95-1.47,41.98,33.32,5.22,31.05-46.71,1.47-41.98Z"/>
      <path class="cls-1" d="M530.07,107.99c56.13-3.9,61.32,73.22,9.45,79.23-58.49,6.78-66.4-75.28-9.45-79.23ZM530,126.61c-23.15,3.66-22.57,47.02,8.12,41.76,23.03-3.95,18.63-45.98-8.12-41.76Z"/>
      <path class="cls-1" d="M1139.2,107.99c57.29-4.03,61.89,75.33,8.33,79.34-58.57,4.39-62.97-75.49-8.33-79.34ZM1139.12,126.62c-21.57,3.5-20.62,39-.19,41.93,32.02,4.59,31.04-46.93.19-41.93Z"/>
      <path class="cls-1" d="M966.06,107.99c57.27-4.03,61.98,75.32,8.33,79.34-58.49,4.38-62.97-75.49-8.33-79.34ZM965.98,126.62c-21.48,3.48-20.72,38.73-.22,41.96,31.74,5.02,31.52-47.04.22-41.96Z"/>
      <rect class="cls-1" x="1063.46" y="108.88" width="22.42" height="77.23"/>
      <path class="cls-1" d="M1044.39,162.83c14.19,12.55-7.35,34.5-20.41,20.4-11.8-12.75,6.8-32.45,20.41-20.4Z"/>
      <path class="cls-1" d="M1063.85,94.8c-13.98-15.11,15.14-30.46,23.12-15.03,7.65,14.77-13.39,25.55-23.12,15.03Z"/>
    </g>
    <g>
      <path class="cls-6" d="M619.21,97.64v8.72c13.85-12.55,38.21-13.96,49.22,2.51,1.97.02,7-5.92,9.91-7.53,17.07-9.43,41.82-4.7,48.07,15.55.6,1.93,2.43,9.88,2.43,11.28v46.71h-22.42v-42.98c0-1.49-2.91-10.09-4.13-11.45-6.92-7.74-21.8-4.34-26.07,4.92-.36.78-2.19,7.37-2.19,7.77v41.73h-22.42v-47.96c0-2.3-4.77-8.04-7.01-9.18-10-5.08-24.13,3.11-24.13,14.16v42.98h-22.42v-77.23h21.18Z"/>
      <path class="cls-6" d="M920.66,68.99v105.88h-21.18v-7.47c-34.91,26.2-76.47-10.23-58.79-49.44,9.75-21.63,39.44-28.25,57.54-12.84v-36.12h22.42ZM875.5,115.37c-21.15,3.34-21.48,38.91-.2,41.95,32.4,4.63,29.91-46.64.2-41.95Z"/>
      <path class="cls-6" d="M428.62,167.39v34.88h-22.42v-104.64h21.18v8.72c34.05-28.11,76.83,9.62,58.37,49.02-9.93,21.18-39.49,27.91-57.12,12.01ZM461.82,152.01c11.24-11.97,5.06-36.04-12.68-36.99-26.77-1.42-27.2,39.99-4.97,42.43,6.29.69,13.21-.72,17.65-5.45Z"/>
      <path class="cls-6" d="M782.14,96.75c60.43-4.19,60.37,84.27-1.6,79.35-49.71-3.94-50.83-75.71,1.6-79.35ZM782.07,115.36c-22.3,3.57-20.83,38.95-1.47,41.98,33.32,5.22,31.05-46.71,1.47-41.98Z"/>
      <path class="cls-6" d="M538,96.75c56.13-3.9,61.32,73.22,9.45,79.23-58.49,6.78-66.4-75.28-9.45-79.23ZM537.93,115.37c-23.15,3.66-22.57,47.02,8.12,41.76,23.03-3.95,18.63-45.98-8.12-41.76Z"/>
      <path class="cls-6" d="M1147.13,96.75c57.29-4.03,61.89,75.33,8.33,79.34-58.57,4.39-62.97-75.49-8.33-79.34ZM1147.05,115.38c-21.57,3.5-20.62,39-.19,41.93,32.02,4.59,31.04-46.93.19-41.93Z"/>
      <path class="cls-6" d="M973.98,96.75c57.27-4.03,61.98,75.32,8.33,79.34-58.49,4.38-62.97-75.49-8.33-79.34ZM973.9,115.38c-21.48,3.48-20.72,38.73-.22,41.96,31.74,5.02,31.52-47.04.22-41.96Z"/>
      <rect class="cls-6" x="1071.38" y="97.64" width="22.42" height="77.23"/>
      <path class="cls-6" d="M1052.32,151.59c14.19,12.55-7.35,34.5-20.41,20.4-11.8-12.75,6.8-32.45,20.41-20.4Z"/>
      <path class="cls-6" d="M1071.77,83.55c-13.98-15.11,15.14-30.46,23.12-15.03,7.65,14.77-13.39,25.55-23.12,15.03Z"/>
    </g>
  </g>
</svg>